# xmcd CD database file
#
# Track frame offsets:
#	150
#	29706
#	54540
#	80064
#	107678
#	133043
#	159256
#	182765
#	207375
#
# Disc length: 2938 seconds
#
# Revision: 0
# Processed by: cddbd v1.5.2PL0 Copyright (c) Steve Scherf et al.
# Submitted via: CDex 1.70beta2
#
DISCID=7c0b7809
DTITLE=L'Ensemble Pierre Labbe - Risque Et Pendule
DYEAR=2003
DGENRE=Jazz
TTITLE0=Outrages
TTITLE1=Combat De Coqs
TTITLE2=Le Blanc Des Yeux
TTITLE3=Bloops
TTITLE4=Contrepoint Du Vide
TTITLE5=Jouer Du Coude
TTITLE6=L'empecheur De Tourner En Rond
TTITLE7=Sur La Corde Raide
TTITLE8=Derriere Le Silence
EXTD=YEAR: 2003
EXTT0=
EXTT1=
EXTT2=
EXTT3=
EXTT4=
EXTT5=
EXTT6=
EXTT7=
EXTT8=
PLAYORDER=
